<svg width="20" height="20" viewBox="0 0 20 20" fill="none" xmlns="http://www.w3.org/2000/svg">
<path d="M9.99998 0.833252C15.0691 0.833252 19.1666 4.93075 19.1666 9.99992C19.1666 15.0691 15.0691 19.1666 9.99998 19.1666C4.93081 19.1666 0.833313 15.0691 0.833313 9.99992C0.833313 4.93075 4.93081 0.833252 9.99998 0.833252ZM14.5833 5.41659H12.2916L11.375 4.49992H8.62498L7.70831 5.41659H5.41665V7.24992H14.5833V5.41659ZM7.24998 15.4999H12.75C12.9931 15.4999 13.2263 15.4033 13.3982 15.2314C13.5701 15.0595 13.6666 14.8264 13.6666 14.5833V8.16659H6.33331V14.5833C6.33331 14.8264 6.42989 15.0595 6.6018 15.2314C6.77371 15.4033 7.00686 15.4999 7.24998 15.4999Z" fill="#BEBEBE"/>
</svg>
