<svg width="16" height="16" viewBox="0 0 16 16" fill="none" xmlns="http://www.w3.org/2000/svg">
<path d="M7.16667 5.29143V8.3581C7.16667 8.64976 7.32501 8.92476 7.57501 9.07476L10.175 10.6164C10.475 10.7914 10.8583 10.6914 11.0333 10.3998C11.2083 10.0998 11.1167 9.71643 10.8167 9.54143L8.42501 8.11643V5.2831C8.41667 4.94976 8.13334 4.66643 7.79167 4.66643C7.45001 4.66643 7.16667 4.94976 7.16667 5.29143ZM15.5 5.91643V1.5081C15.5 1.1331 15.05 0.949764 14.7917 1.21643L13.3083 2.69976C12.5277 1.91911 11.5846 1.3202 10.546 0.945701C9.50752 0.571199 8.39919 0.43032 7.30001 0.533098C3.80834 0.849764 0.933339 3.6581 0.550005 7.14976C0.347373 9.10758 0.922491 11.0666 2.15129 12.6042C3.38009 14.1417 5.16407 15.1346 7.11837 15.3687C9.07268 15.6027 11.0407 15.0591 12.5978 13.8552C14.1549 12.6512 15.1763 10.8834 15.4417 8.9331C15.5 8.4331 15.1083 7.99976 14.6083 7.99976C14.1917 7.99976 13.8417 8.3081 13.7917 8.71643C13.4333 11.6248 10.925 13.8748 7.91667 13.8331C4.82501 13.7914 2.21667 11.1831 2.16667 8.0831C2.11667 4.8331 4.75834 2.16643 8.00001 2.16643C9.60834 2.16643 11.0667 2.82476 12.125 3.87476L10.3833 5.61643C10.1167 5.8831 10.3 6.3331 10.675 6.3331H15.0833C15.3167 6.3331 15.5 6.14976 15.5 5.91643Z" fill="#646970"/>
</svg>
