<svg width="12" height="14" viewBox="0 0 12 14" fill="none" xmlns="http://www.w3.org/2000/svg">
<path d="M6.00635 0C4.54817 0.00165421 3.15018 0.581648 2.11909 1.61274C1.088 2.64383 0.508002 4.04182 0.506348 5.5C0.506348 10.2062 5.50635 13.7625 5.71885 13.9125C5.80401 13.9692 5.90404 13.9995 6.00635 13.9995C6.10866 13.9995 6.20869 13.9692 6.29385 13.9125C6.50635 13.7625 11.5063 10.2062 11.5063 5.5C11.5047 4.04182 10.9247 2.64383 9.89361 1.61274C8.86252 0.581648 7.46453 0.00165421 6.00635 0ZM6.00635 3.5C6.40191 3.5 6.78859 3.6173 7.11749 3.83706C7.44639 4.05682 7.70273 4.36918 7.85411 4.73463C8.00548 5.10008 8.04509 5.50222 7.96792 5.89018C7.89075 6.27814 7.70027 6.63451 7.42056 6.91421C7.14086 7.19392 6.78449 7.3844 6.39653 7.46157C6.00857 7.53874 5.60643 7.49913 5.24098 7.34776C4.87553 7.19638 4.56317 6.94004 4.34341 6.61114C4.12365 6.28224 4.00635 5.89556 4.00635 5.5C4.00635 4.96957 4.21706 4.46086 4.59213 4.08579C4.96721 3.71071 5.47591 3.5 6.00635 3.5Z" fill="white"/>
</svg>
