<svg width="17" height="17" viewBox="0 0 17 17" fill="none" xmlns="http://www.w3.org/2000/svg">
<path d="M8.50011 0.0556641C6.82996 0.0556641 5.19731 0.550922 3.80863 1.47881C2.41995 2.4067 1.3376 3.72554 0.698463 5.26856C0.0593229 6.81158 -0.107905 8.50948 0.217925 10.1475C0.543756 11.7856 1.34801 13.2903 2.52899 14.4712C3.70997 15.6522 5.21462 16.4565 6.85268 16.7823C8.49075 17.1081 10.1886 16.9409 11.7317 16.3018C13.2747 15.6626 14.5935 14.5803 15.5214 13.1916C16.4493 11.8029 16.9446 10.1703 16.9446 8.50011C16.9446 6.2605 16.0549 4.11263 14.4712 2.52898C12.8876 0.945344 10.7397 0.0556641 8.50011 0.0556641ZM14.0154 5.66594L7.08039 12.5957L2.98483 8.50011C2.84486 8.36013 2.76622 8.17029 2.76622 7.97233C2.76622 7.77438 2.84486 7.58453 2.98483 7.44455C3.12481 7.30458 3.31466 7.22594 3.51261 7.22594C3.71057 7.22594 3.90041 7.30458 4.04039 7.44455L7.09095 10.4951L12.9704 4.62094C13.0397 4.55163 13.122 4.49665 13.2125 4.45915C13.3031 4.42164 13.4002 4.40233 13.4982 4.40233C13.5962 4.40233 13.6932 4.42164 13.7838 4.45915C13.8744 4.49665 13.9566 4.55163 14.0259 4.62094C14.0953 4.69025 14.1502 4.77253 14.1877 4.86309C14.2253 4.95364 14.2446 5.0507 14.2446 5.14872C14.2446 5.24674 14.2253 5.34379 14.1877 5.43435C14.1502 5.52491 14.0953 5.60719 14.0259 5.6765L14.0154 5.66594Z" fill="#E82C2A"/>
</svg>
