<svg width="12" height="10" viewBox="0 0 12 10" fill="none" xmlns="http://www.w3.org/2000/svg">
<path d="M10.8563 9.14373C10.9501 9.23853 11.0028 9.36656 11.0028 9.49998C11.0028 9.6334 10.9501 9.76143 10.8563 9.85623C10.7607 9.94864 10.6329 10.0003 10.5 10.0003C10.3671 10.0003 10.2393 9.94864 10.1438 9.85623L6 5.70623L1.85626 9.85623C1.76068 9.94864 1.63295 10.0003 1.50001 10.0003C1.36706 10.0003 1.23933 9.94864 1.14375 9.85623C1.04986 9.76143 0.997192 9.6334 0.997192 9.49998C0.997192 9.36656 1.04986 9.23853 1.14375 9.14373L5.29375 4.99998L1.14375 0.856231C1.06402 0.759083 1.02328 0.635751 1.02944 0.510225C1.03561 0.384699 1.08824 0.265954 1.17711 0.177086C1.26598 0.0882188 1.38472 0.0355836 1.51025 0.0294185C1.63578 0.0232535 1.75911 0.0639994 1.85626 0.143731L6 4.29373L10.1438 0.143731C10.2409 0.0639994 10.3642 0.0232535 10.4898 0.0294185C10.6153 0.0355836 10.734 0.0882188 10.8229 0.177086C10.9118 0.265954 10.9644 0.384699 10.9706 0.510225C10.9767 0.635751 10.936 0.759083 10.8563 0.856231L6.70625 4.99998L10.8563 9.14373Z" fill="#878787"/>
</svg>
